<?xml version="1.0" standalone="no"?>
<!DOCTYPE svg PUBLIC "-//W3C//DTD SVG 20010904//EN"
 "http://www.w3.org/TR/2001/REC-SVG-20010904/DTD/svg10.dtd">
<svg version="1.0" xmlns="http://www.w3.org/2000/svg"
 width="2481.000000pt" height="3508.000000pt" viewBox="0 0 2481.000000 3508.000000"
 preserveAspectRatio="xMidYMid meet">

<g transform="translate(0.000000,3508.000000) scale(0.100000,-0.100000)"
fill="#000000" stroke="none">
<path d="M14376 30125 c-416 -79 -766 -360 -931 -746 -76 -176 -110 -383 -103
-619 l3 -125 -45 -3 c-25 -2 -180 -16 -345 -33 -476 -47 -1394 -63 -2375 -41
-393 9 -497 14 -605 31 -638 101 -1220 -196 -1460 -745 -30 -67 -38 -79 -57
-77 -13 1 -87 7 -166 14 -106 9 -192 9 -330 2 -103 -6 -200 -10 -217 -10 -60
1 -731 -23 -780 -28 -74 -8 -752 -23 -1495 -35 -457 -8 -696 -8 -790 0 -74 5
-234 13 -355 16 -251 8 -370 -5 -547 -57 -134 -39 -341 -142 -449 -223 -269
-203 -476 -520 -550 -846 -28 -122 -35 -329 -15 -456 30 -200 127 -441 235
-585 113 -149 302 -297 510 -399 l92 -45 -6 -355 c-6 -324 11 -992 30 -1150 3
-25 10 -215 15 -422 6 -207 15 -441 20 -520 6 -79 15 -307 20 -508 5 -201 12
-429 16 -507 l7 -143 -24 0 c-48 0 -440 -70 -674 -120 -132 -28 -341 -71 -465
-95 -359 -68 -465 -101 -769 -236 -443 -198 -644 -355 -804 -634 -109 -188
-160 -386 -160 -615 1 -226 45 -403 174 -695 33 -77 88 -203 121 -280 66 -154
100 -215 228 -415 47 -74 108 -175 134 -225 123 -227 364 -540 621 -804 193
-197 306 -284 640 -493 338 -210 415 -251 585 -312 41 -15 149 -69 240 -121
91 -51 190 -105 221 -120 l56 -28 7 -90 c9 -138 7 -580 -9 -1657 -15 -1014
-24 -1256 -51 -1352 -3 -10 -53 -51 -112 -91 -79 -55 -126 -80 -182 -96 -388
-116 -709 -424 -834 -801 -58 -173 -69 -275 -61 -539 7 -248 23 -374 61 -499
118 -388 426 -702 810 -826 181 -59 199 -60 714 -61 419 -1 892 -12 1955 -46
165 -5 505 -13 755 -18 545 -11 848 -37 1132 -97 l78 -17 63 -131 c35 -72 83
-175 106 -228 64 -145 148 -267 270 -388 193 -192 389 -301 643 -357 111 -24
457 -24 633 0 316 43 480 50 1079 44 314 -3 634 -10 711 -16 239 -19 582 -51
760 -72 94 -11 283 -26 420 -34 144 -8 297 -22 360 -34 61 -10 172 -31 248
-45 214 -40 317 -49 477 -43 164 7 290 30 435 81 64 22 98 30 100 22 6 -17
172 -889 206 -1080 11 -61 24 -164 29 -230 25 -294 32 -350 60 -496 16 -85 56
-310 89 -500 117 -672 151 -809 241 -996 169 -349 506 -598 908 -670 102 -18
318 -21 413 -5 401 66 752 331 935 705 66 136 117 289 148 450 28 135 33 196
46 511 5 121 30 414 54 650 25 237 50 504 56 595 5 91 17 224 25 295 8 72 35
384 60 695 25 311 48 571 50 578 2 6 15 12 29 12 46 0 201 52 301 100 309 149
551 418 654 726 66 197 63 110 71 1744 4 817 8 1582 9 1701 l1 216 43 12 c71
22 247 118 342 189 299 223 477 515 540 887 47 284 46 481 -9 1289 -60 879
-68 1014 -62 1024 3 5 45 12 93 15 297 22 743 125 1158 267 50 17 140 44 200
60 156 41 267 85 535 214 129 63 285 134 347 159 207 85 315 147 495 283 53
41 138 99 188 129 169 102 280 197 387 327 32 40 111 124 177 188 265 258 390
490 431 807 11 82 15 211 15 456 0 188 5 383 10 432 5 50 29 302 55 560 25
259 56 576 70 705 13 129 26 276 30 325 3 50 12 144 20 210 8 66 24 217 35
335 11 118 36 357 55 530 18 173 39 385 44 470 16 239 23 1102 10 1217 -34
317 -125 566 -303 831 -294 438 -395 576 -521 717 -44 50 -107 127 -140 173
-32 46 -97 125 -144 176 -48 51 -118 138 -158 192 -40 55 -101 131 -136 169
-35 39 -105 124 -154 190 -50 66 -137 170 -194 231 -57 60 -161 184 -230 275
-69 90 -148 189 -175 219 -28 30 -79 93 -116 140 -36 47 -96 119 -135 160 -38
41 -102 120 -143 175 -40 55 -119 147 -175 205 -56 58 -125 135 -153 171 -131
169 -332 313 -541 389 -144 53 -267 73 -446 73 -242 0 -418 -27 -675 -104 -74
-22 -136 -36 -137 -32 -8 23 -95 164 -132 213 -62 83 -203 221 -289 283 -137
98 -291 166 -464 204 -75 16 -122 18 -518 13 -873 -10 -1578 -5 -1854 13 -434
29 -621 36 -1121 41 -402 5 -493 3 -559 -9z m824 -15 c223 -5 556 -20 740 -32
287 -19 426 -22 970 -23 349 0 815 2 1035 5 359 4 408 3 475 -13 265 -62 449
-166 635 -358 92 -95 179 -215 226 -312 16 -34 28 -47 39 -43 203 69 385 113
553 136 118 15 380 13 483 -5 295 -52 572 -218 750 -451 32 -41 95 -112 141
-156 45 -44 115 -126 155 -181 40 -55 108 -138 152 -186 43 -47 108 -124 144
-171 37 -47 88 -110 115 -139 27 -30 105 -128 173 -217 68 -89 171 -213 230
-276 58 -62 146 -167 196 -233 50 -66 120 -151 155 -190 35 -38 96 -114 136
-169 40 -54 109 -139 154 -188 45 -50 108 -126 140 -170 32 -44 98 -126 147
-182 139 -159 229 -282 522 -718 181 -270 275 -530 303 -843 14 -157 -3 -1162
-23 -1365 -9 -85 -27 -254 -41 -375 -14 -121 -34 -317 -45 -435 -12 -118 -27
-269 -35 -335 -8 -66 -19 -185 -25 -265 -6 -80 -19 -226 -30 -325 -11 -99 -40
-394 -65 -655 -25 -261 -48 -484 -51 -495 -3 -11 -10 -227 -14 -480 -8 -501
-14 -557 -71 -729 -66 -198 -164 -344 -363 -541 -72 -72 -157 -163 -190 -203
-98 -121 -234 -235 -390 -327 -43 -25 -122 -79 -176 -120 -181 -137 -293 -201
-507 -288 -62 -26 -219 -98 -350 -160 -266 -128 -352 -163 -498 -202 -55 -14
-174 -51 -265 -80 -271 -88 -474 -143 -680 -185 -194 -39 -408 -70 -480 -70
-51 0 -69 -8 -64 -28 2 -9 8 -105 14 -212 6 -107 31 -487 55 -843 55 -795 56
-970 9 -1252 -62 -370 -236 -658 -533 -880 -92 -69 -263 -162 -347 -189 l-51
-17 -6 -1697 c-6 -1867 -3 -1772 -68 -1966 -62 -186 -162 -340 -315 -486 -171
-164 -370 -274 -582 -320 -46 -10 -85 -20 -87 -22 -1 -2 -24 -262 -49 -578
-26 -316 -54 -629 -61 -695 -8 -66 -19 -194 -25 -285 -6 -91 -33 -383 -60
-650 -26 -267 -51 -570 -55 -675 -10 -329 -33 -475 -105 -697 -207 -630 -775
-994 -1397 -893 -451 73 -822 383 -967 808 -36 106 -94 379 -161 762 -31 176
-76 428 -100 560 -31 167 -47 291 -55 408 -5 93 -17 212 -25 265 -19 119 -183
987 -216 1143 l-10 46 -110 -38 c-145 -51 -288 -80 -434 -86 -145 -7 -281 7
-520 52 -302 57 -368 65 -603 75 -125 5 -236 12 -247 15 -29 7 -578 62 -810
80 -110 9 -416 20 -680 25 -585 10 -859 0 -1215 -47 -77 -10 -200 -17 -320
-17 -221 -1 -308 12 -466 69 -318 113 -603 386 -734 703 -18 42 -59 131 -91
197 -33 65 -59 125 -59 132 0 34 -371 92 -790 124 -85 6 -312 13 -505 14 -192
2 -480 8 -640 13 -159 5 -506 15 -770 21 -264 6 -563 16 -665 22 -102 6 -376
10 -610 9 -350 -2 -440 0 -510 13 -248 46 -477 166 -653 342 -176 176 -297
400 -342 637 -20 106 -39 464 -31 588 4 52 14 128 22 170 89 430 427 799 851
926 75 23 111 42 200 104 128 90 126 85 142 290 22 278 54 2866 35 2913 -3 10
-43 36 -87 58 -44 23 -146 78 -226 124 -80 45 -191 100 -246 120 -131 49 -224
97 -398 202 -393 239 -559 358 -723 515 -259 249 -558 627 -690 873 -26 50
-87 151 -134 225 -134 208 -163 262 -256 476 -144 332 -195 463 -227 584 -30
111 -31 123 -31 320 0 191 2 212 27 304 80 298 259 547 517 718 97 64 396 210
575 281 178 71 280 100 480 139 88 17 295 59 460 94 334 70 511 103 690 129
147 21 148 21 141 41 -3 8 -10 200 -16 427 -5 226 -17 528 -25 671 -8 144 -19
416 -25 606 -5 190 -17 476 -27 635 -12 212 -16 421 -15 781 l1 490 -102 53
c-243 127 -429 280 -532 439 -346 537 -263 1205 210 1677 205 206 456 337 745
392 116 22 444 24 700 4 119 -10 277 -12 570 -7 900 14 1462 27 1790 41 851
35 1325 42 1460 19 l35 -6 33 79 c200 491 710 799 1272 769 69 -4 159 -13 200
-22 162 -32 1422 -46 2265 -25 338 9 477 17 714 41 162 16 315 30 341 30 l48
0 4 243 c4 222 7 250 31 337 116 425 420 746 826 874 188 59 267 63 971 46z"/>
<path d="M14563 28728 c5 -214 21 -334 166 -1293 106 -696 136 -938 150 -1210
5 -99 19 -238 30 -310 29 -188 258 -1755 271 -1855 6 -47 15 -170 20 -275 7
-157 31 -342 134 -1060 68 -478 131 -928 140 -1000 42 -349 49 -434 51 -610 2
-122 11 -246 24 -345 12 -85 21 -167 21 -183 l0 -28 -32 17 c-18 9 -85 52
-148 94 -190 126 -262 167 -330 189 -36 12 -119 48 -185 82 -163 81 -241 100
-435 106 -132 4 -183 1 -340 -22 -399 -57 -638 -101 -929 -171 -101 -24 -185
-43 -186 -42 -22 26 -51 2624 -42 3698 9 1014 41 1556 102 1729 25 72 170 391
270 596 101 209 103 211 211 330 60 66 119 134 132 152 l23 32 -43 28 c-76 48
-100 52 -253 43 -77 -5 -252 -21 -390 -35 -199 -20 -341 -28 -690 -35 -619
-14 -1158 -16 -1675 -7 -470 8 -677 19 -800 43 -106 20 -156 18 -180 -6 -48
-48 -40 -128 24 -232 26 -42 55 -79 64 -82 9 -3 76 -41 147 -85 130 -78 130
-78 154 -137 72 -179 97 -323 116 -684 8 -151 19 -311 25 -355 5 -44 17 -196
25 -338 8 -142 17 -281 20 -310 11 -103 77 -1358 86 -1622 5 -148 13 -1017 19
-1930 l10 -1660 -39 -36 c-22 -19 -79 -60 -128 -89 -48 -30 -180 -123 -293
-208 -112 -85 -226 -165 -253 -178 -83 -43 -174 -101 -290 -188 -65 -49 -160
-108 -226 -140 -62 -31 -195 -109 -295 -173 -143 -93 -201 -124 -276 -149 -52
-18 -151 -61 -220 -96 -119 -61 -304 -139 -362 -153 l-28 -7 0 68 c0 38 -7
155 -15 259 -8 105 -19 314 -25 465 -5 151 -16 464 -25 695 -8 231 -20 524
-26 650 -23 492 -29 1021 -35 2960 -6 2204 -9 2086 52 2222 50 114 232 337
316 390 77 47 88 74 88 215 l0 118 -87 0 c-123 0 -690 -18 -1123 -35 -880 -35
-2246 -49 -2642 -27 -216 13 -242 12 -287 -3 -54 -18 -127 -87 -150 -142 -24
-58 -3 -79 146 -153 351 -173 579 -410 665 -692 22 -72 22 -81 24 -688 1 -408
7 -719 18 -925 8 -170 20 -452 26 -625 6 -173 17 -457 26 -630 9 -173 19 -468
24 -655 5 -187 16 -475 24 -640 15 -297 33 -841 61 -1875 9 -294 15 -723 15
-953 l0 -419 -62 7 c-152 16 -247 55 -493 200 -81 49 -195 107 -254 130 -135
53 -151 62 -296 155 -66 42 -190 114 -275 160 -184 98 -294 169 -373 238 -31
28 -98 72 -147 98 -78 40 -104 61 -195 156 -58 61 -105 113 -105 117 2 23 453
314 523 337 75 24 135 56 292 154 77 49 185 112 239 142 125 68 158 105 164
186 6 84 -7 107 -66 121 -43 11 -74 8 -266 -23 -120 -20 -331 -61 -469 -91
-139 -30 -329 -68 -422 -84 -208 -38 -288 -59 -426 -116 -86 -35 -344 -158
-357 -170 -8 -8 73 -225 133 -355 128 -279 143 -308 232 -441 49 -74 111 -176
138 -227 58 -110 173 -266 332 -449 178 -206 248 -264 498 -415 77 -47 178
-108 223 -136 46 -28 120 -63 165 -77 95 -31 150 -58 359 -177 190 -107 243
-132 328 -154 39 -9 135 -53 240 -109 96 -51 221 -116 278 -144 l102 -51 1
-233 c0 -127 4 -385 8 -572 6 -217 4 -678 -5 -1275 -7 -514 -14 -1038 -14
-1165 -1 -298 -40 -772 -74 -907 -26 -104 -114 -316 -167 -403 -86 -143 -210
-255 -484 -438 -246 -164 -347 -216 -443 -225 l-67 -7 0 -47 c1 -27 2 -104 3
-172 l2 -124 523 -5 c642 -6 1457 -24 1477 -31 19 -8 587 -25 1185 -36 248 -4
466 -11 485 -14 19 -3 109 -13 200 -21 352 -34 665 -91 881 -161 61 -19 135
-38 165 -41 l54 -6 0 110 c0 149 -9 161 -150 223 -123 54 -153 73 -267 172
-47 40 -118 96 -157 123 -68 48 -73 55 -129 165 -35 71 -63 142 -72 185 -11
56 -16 273 -24 1060 -10 905 -26 2669 -34 3692 l-4 412 49 10 c26 6 105 18
175 26 71 9 146 20 168 25 80 18 494 159 659 224 92 36 205 75 250 87 100 25
320 127 487 225 70 41 162 88 205 105 88 34 180 93 319 204 51 41 95 75 99 75
3 0 6 -25 6 -56 0 -31 5 -108 10 -172 14 -155 67 -1331 80 -1747 18 -621 22
-1386 9 -1880 -6 -264 -13 -518 -13 -565 -3 -157 -27 -553 -56 -915 -16 -198
-31 -430 -34 -515 -14 -425 -93 -724 -298 -1133 -66 -133 -73 -143 -206 -284
-132 -140 -145 -151 -337 -278 -212 -140 -281 -200 -270 -238 4 -12 24 -47 45
-78 22 -33 48 -89 61 -133 38 -131 68 -142 296 -111 312 42 418 48 1033 52
754 6 1070 -9 1733 -83 128 -14 324 -30 437 -34 206 -9 242 -14 731 -96 212
-35 230 -37 285 -25 45 10 68 23 96 51 l38 38 0 92 0 92 -34 32 c-19 17 -93
64 -164 104 -258 146 -341 235 -467 497 -140 290 -217 536 -271 865 -21 131
-33 1004 -34 2535 -1 660 -6 1992 -11 2960 -6 968 -8 1957 -5 2199 5 434 5
439 27 462 22 24 73 43 169 65 30 6 123 38 205 69 83 32 179 68 214 79 113 37
373 99 483 115 108 16 292 21 385 10 l52 -7 15 -71 c8 -39 36 -181 61 -316 26
-135 73 -382 105 -550 110 -571 142 -775 160 -1029 13 -175 47 -409 150 -1031
144 -866 157 -956 165 -1155 2 -71 9 -177 14 -235 10 -104 86 -725 96 -788 6
-30 -9 -18 -156 128 -88 88 -180 187 -204 219 -23 32 -66 78 -96 102 -104 87
-162 145 -206 206 -36 51 -126 133 -145 133 -3 0 3 -37 14 -82 10 -46 25 -157
33 -248 26 -286 33 -329 176 -1090 107 -569 143 -784 154 -910 21 -235 19
-221 111 -705 165 -856 206 -1106 224 -1335 13 -166 8 -139 170 -1015 144
-782 137 -739 145 -890 8 -158 32 -320 99 -665 167 -871 210 -1134 225 -1365
6 -82 17 -183 26 -224 8 -41 47 -252 85 -470 38 -218 86 -475 106 -571 20 -96
39 -187 42 -203 2 -15 8 -27 11 -27 15 0 72 81 87 122 36 102 46 186 54 438 6
185 21 375 54 690 25 239 52 532 61 650 8 118 20 251 25 295 6 44 47 519 91
1055 68 828 82 1027 89 1320 11 441 60 1323 74 1337 8 8 119 -189 164 -292 66
-149 102 -219 184 -359 78 -131 112 -203 152 -317 32 -91 128 -243 199 -318
53 -54 133 -101 175 -101 l22 0 1 258 c1 141 5 1497 8 3012 l6 2755 103 -200
c57 -110 120 -238 139 -285 44 -105 97 -214 157 -318 26 -44 85 -165 132 -268
96 -213 151 -318 230 -441 61 -94 53 -92 122 -29 19 17 43 49 55 71 47 88 40
245 -119 2500 -25 352 -58 865 -74 1140 -16 275 -32 516 -35 535 -9 59 -51
873 -55 1069 0 21 179 -252 239 -364 29 -55 109 -181 176 -280 67 -99 143
-221 168 -271 46 -94 65 -125 202 -322 43 -63 91 -146 107 -185 17 -40 67
-128 113 -197 45 -69 92 -142 104 -162 55 -93 114 -114 273 -98 254 25 507 84
858 198 118 39 259 82 313 96 135 36 202 63 430 177 108 54 245 119 303 144
123 53 172 83 313 194 56 44 134 97 173 118 67 35 87 54 191 179 23 29 88 93
143 143 56 51 107 104 113 119 6 17 12 176 14 432 4 433 10 511 132 1665 13
127 27 273 30 325 3 52 12 149 20 215 8 66 24 219 35 340 11 121 36 375 55
565 47 477 53 580 60 1020 8 548 13 530 -237 890 -165 236 -253 351 -318 415
-34 33 -89 101 -122 150 -34 50 -100 131 -148 180 -47 50 -119 138 -158 196
-40 58 -107 144 -150 190 -43 46 -109 127 -147 179 -37 52 -104 133 -147 179
-44 46 -135 157 -204 246 -135 177 -260 325 -273 325 -5 0 -40 44 -77 97 -38
53 -112 142 -165 197 -53 56 -116 133 -141 171 -50 78 -73 103 -205 222 -68
61 -95 94 -109 129 l-19 46 -105 -5 c-126 -7 -209 -28 -420 -107 -87 -33 -206
-71 -262 -85 -110 -28 -231 -74 -473 -177 -189 -82 -203 -86 -477 -162 l-226
-62 -6 40 c-15 112 -17 218 -7 386 6 102 14 315 17 473 l7 289 -304 -9 c-167
-4 -612 -8 -989 -8 -594 1 -732 4 -1035 23 -304 19 -968 42 -1239 42 l-88 0 5
-202z m707 102 c190 -5 496 -19 680 -32 283 -18 431 -22 955 -22 341 -1 755 3
919 7 l299 9 -9 -284 c-13 -424 -12 -782 4 -850 13 -55 15 -58 44 -58 28 0
109 21 458 120 78 22 235 81 372 138 130 56 276 113 325 127 142 42 320 100
443 145 129 47 229 70 298 70 42 0 50 -3 65 -29 10 -17 70 -79 133 -138 71
-66 136 -137 167 -183 28 -41 95 -122 149 -180 55 -58 122 -139 150 -180 28
-41 88 -113 133 -160 45 -47 143 -164 218 -262 75 -97 175 -217 222 -268 47
-50 108 -125 136 -166 28 -41 95 -124 148 -184 54 -61 127 -151 162 -202 34
-51 102 -133 149 -183 48 -49 112 -129 143 -177 31 -48 91 -122 134 -165 84
-84 100 -104 308 -403 197 -282 223 -344 227 -531 2 -107 -21 -889 -28 -949
-3 -25 -19 -182 -35 -350 -16 -168 -32 -324 -35 -347 l-6 -43 -169 0 -169 0 0
100 0 100 -230 0 -230 0 0 -275 0 -275 -60 0 -60 0 0 -280 0 -280 60 0 c33 0
60 4 60 10 0 6 35 10 85 10 50 0 85 -4 85 -10 0 -6 55 -10 145 -10 90 0 145
-4 145 -10 0 -6 -55 -10 -145 -10 l-145 0 0 -265 0 -265 60 0 60 0 0 -105 0
-105 25 0 c22 0 25 -4 25 -35 l0 -35 55 0 55 0 0 -130 c0 -109 2 -130 15 -130
8 0 15 -4 15 -10 0 -5 18 -10 40 -10 22 0 40 -4 40 -10 0 -5 7 -10 17 -10 17
0 17 -28 -7 -330 -5 -69 -10 -272 -10 -452 l0 -326 -111 -104 c-61 -57 -138
-138 -171 -180 -49 -65 -71 -85 -133 -118 -40 -23 -131 -86 -201 -140 -93 -72
-154 -111 -223 -142 -53 -24 -202 -95 -331 -159 -252 -125 -327 -155 -478
-194 -53 -13 -131 -36 -172 -50 -397 -138 -738 -219 -975 -232 l-111 -6 -27
34 c-58 71 -209 311 -233 370 -30 74 -75 148 -182 299 -45 63 -106 165 -137
227 -31 61 -109 187 -173 280 -65 93 -143 218 -175 278 -32 61 -93 162 -137
225 l-78 115 63 7 c35 3 72 11 83 17 11 6 56 11 99 11 70 0 84 -3 124 -29 46
-29 93 -86 145 -176 16 -27 80 -99 143 -160 62 -60 135 -142 162 -182 27 -39
78 -97 115 -130 36 -32 111 -111 167 -176 55 -65 113 -125 128 -133 89 -45
178 14 302 203 37 56 94 133 128 170 133 147 181 234 199 366 14 95 22 1796
10 1987 -6 80 -14 327 -20 550 -22 860 -87 1933 -151 2485 -11 94 -26 231 -34
305 -28 266 -156 1285 -175 1397 -20 121 -36 154 -93 197 -92 70 -197 72 -437
11 -99 -25 -183 -39 -266 -45 -181 -13 -423 -69 -717 -166 -132 -44 -154 -61
-168 -134 -20 -110 -28 -703 -18 -1374 5 -364 12 -1617 15 -2785 2 -1167 6
-2127 9 -2131 3 -5 10 -120 15 -257 11 -301 36 -744 50 -908 5 -66 21 -318 35
-560 14 -242 32 -525 40 -630 14 -185 30 -412 136 -1970 53 -786 57 -932 25
-992 -9 -18 -20 -33 -24 -33 -20 0 -130 207 -237 445 -39 88 -104 217 -143
287 -39 70 -97 187 -128 260 -31 73 -66 151 -79 173 -12 22 -69 131 -125 243
-89 177 -109 208 -154 248 l-51 44 -7 -2807 c-3 -1545 -10 -2927 -13 -3073
l-7 -265 -49 53 c-67 73 -152 220 -189 327 -19 55 -76 167 -143 285 -61 107
-130 237 -152 290 -23 52 -57 124 -75 160 -34 69 -261 442 -266 437 -5 -5 -63
-897 -74 -1137 -15 -352 -17 -370 -41 -370 -18 0 -19 -8 -19 -105 l0 -105 -25
0 c-22 0 -25 -4 -25 -35 0 -35 0 -35 45 -35 45 0 45 0 45 -34 0 -38 -26 -368
-36 -453 l-5 -53 -115 0 -114 0 0 -115 0 -115 -115 0 -115 0 0 -100 0 -100
-50 0 -50 0 0 -35 c0 -28 4 -35 20 -35 16 0 20 -7 20 -35 0 -32 -2 -35 -30
-35 -28 0 -30 -3 -30 -35 0 -32 2 -35 30 -35 28 0 30 -3 30 -35 0 -32 2 -35
30 -35 30 0 30 -1 30 -52 0 -29 3 -77 6 -106 6 -46 9 -52 30 -52 23 0 24 -4
24 -60 l0 -60 30 0 c17 0 30 -4 30 -10 0 -5 11 -10 25 -10 14 0 25 -4 25 -10
0 -5 14 -10 30 -10 26 0 30 -3 29 -27 0 -16 -3 -22 -6 -15 -2 6 -16 12 -29 12
-25 0 -32 -14 -11 -24 10 -5 10 -7 0 -12 -15 -7 -17 -54 -3 -54 6 0 10 -16 10
-35 0 -28 4 -35 20 -35 16 0 20 7 20 35 0 31 3 35 25 35 14 0 25 5 25 10 0 6
-7 10 -15 10 -9 0 -15 9 -15 25 0 14 5 25 11 25 14 0 39 -25 39 -39 0 -6 5
-11 11 -11 14 0 49 -39 49 -54 0 -18 -29 -341 -45 -496 -8 -80 -17 -192 -20
-250 -4 -58 -29 -328 -56 -600 -37 -360 -52 -564 -58 -747 -7 -225 -12 -277
-25 -262 -4 5 -56 287 -131 709 -74 425 -73 415 -85 587 -11 158 -38 340 -91
618 -17 88 -43 232 -59 320 -16 88 -51 278 -79 422 -62 322 -78 436 -90 628
-6 95 -25 230 -50 369 -40 213 -51 336 -31 336 6 0 10 16 10 35 0 28 4 35 20
35 16 0 20 7 20 35 0 32 -2 35 -30 35 l-30 0 0 280 0 280 -25 0 c-21 0 -25 5
-25 30 0 27 -3 30 -30 30 -28 0 -30 3 -30 35 0 33 -2 35 -34 35 l-33 0 -17
103 c-9 56 -23 179 -31 272 -20 234 -62 484 -214 1270 -94 484 -98 512 -116
725 -9 102 -22 217 -30 255 -8 39 -73 382 -145 764 -93 493 -135 741 -145 855
-22 233 -25 220 38 160 28 -28 74 -68 101 -89 27 -21 68 -66 93 -99 24 -34 99
-115 167 -181 67 -66 147 -148 178 -182 46 -53 60 -63 87 -63 21 0 41 9 56 25
34 33 33 57 -15 435 -56 442 -59 469 -70 678 -11 231 -25 330 -155 1117 -128
774 -152 938 -165 1134 -15 230 -38 372 -205 1246 -42 220 -90 474 -107 565
-17 91 -32 171 -34 178 -2 7 -19 12 -40 12 -20 0 -77 5 -126 12 -222 29 -645
-50 -1006 -188 -81 -31 -185 -68 -232 -81 -47 -13 -109 -30 -137 -39 -59 -17
-106 -52 -131 -98 -16 -29 -17 -140 -17 -1661 1 -896 6 -2701 12 -4010 12
-2596 8 -2441 69 -2715 57 -253 116 -426 229 -670 134 -290 238 -402 521 -561
144 -81 154 -91 154 -150 0 -31 -6 -55 -19 -70 -32 -40 -100 -36 -466 26 -290
49 -355 57 -540 65 -115 5 -309 20 -430 34 -584 66 -893 86 -1447 93 l-477 6
-11 33 c-7 19 -16 34 -21 34 -5 0 -9 9 -9 20 0 11 -6 20 -13 20 -18 0 -122 54
-142 73 -8 9 -15 23 -15 31 0 9 -9 24 -20 33 -11 10 -20 22 -20 28 0 5 -18 21
-40 35 -22 13 -40 30 -40 37 0 7 -4 13 -10 13 -5 0 -10 6 -10 13 0 16 -44 67
-59 67 -6 0 -11 7 -11 15 0 8 -4 15 -10 15 -5 0 -10 7 -10 15 0 8 -4 15 -10
15 -5 0 -10 7 -10 15 0 8 -11 17 -25 21 -14 3 -25 12 -25 20 0 8 -7 14 -15 14
-8 0 -15 9 -15 20 0 11 -5 20 -11 20 -6 0 -19 10 -29 22 -17 22 -16 23 47 96
51 58 81 107 140 231 136 283 199 461 243 686 29 143 50 343 50 463 0 57 13
261 29 455 59 692 70 995 78 1952 7 938 -5 1514 -52 2480 -41 837 -52 1024
-62 1083 l-8 43 -59 -42 c-33 -24 -121 -90 -195 -149 -130 -101 -183 -132
-334 -199 -37 -17 -107 -55 -155 -84 -134 -83 -334 -174 -465 -213 -65 -19
-175 -57 -245 -85 -359 -144 -625 -225 -817 -249 -159 -21 -207 -31 -268 -57
l-38 -16 6 -106 c3 -58 9 -700 15 -1426 5 -726 12 -1571 15 -1878 4 -496 3
-557 -10 -543 -8 8 -15 19 -15 25 0 6 -7 11 -15 11 -8 0 -15 9 -15 20 0 11 -7
20 -15 20 -8 0 -15 7 -15 15 0 8 -7 15 -15 15 -8 0 -15 9 -15 20 0 11 -7 20
-15 20 -8 0 -15 7 -15 15 0 8 -7 15 -15 15 -8 0 -15 9 -15 20 0 11 -7 20 -15
20 -8 0 -15 7 -15 15 0 8 -9 15 -20 15 -11 0 -20 7 -20 15 0 9 -9 15 -24 15
-21 0 -24 6 -30 49 -5 37 -11 51 -26 56 -11 4 -20 12 -20 20 0 7 -7 15 -15 19
-8 3 -15 12 -15 21 0 8 -7 15 -15 15 -8 0 -15 7 -15 15 0 8 -7 15 -15 15 -8 0
-15 9 -15 20 0 11 -7 20 -15 20 -8 0 -15 7 -15 15 0 8 -7 15 -15 15 -8 0 -15
7 -15 15 0 8 -7 15 -15 15 -8 0 -15 7 -15 15 0 8 -5 15 -10 15 -13 0 -80 68
-80 81 0 5 -4 9 -10 9 -5 0 -10 7 -10 15 0 8 -7 15 -15 15 -8 0 -15 7 -15 15
0 9 -9 15 -25 15 -19 0 -25 5 -25 21 0 12 -8 23 -20 26 -15 4 -20 14 -20 39 0
24 -5 34 -15 34 -10 0 -15 10 -15 33 0 21 -7 38 -20 47 -11 8 -20 20 -20 27 0
7 -11 15 -25 19 -14 3 -25 12 -25 20 0 8 -7 14 -15 14 -8 0 -15 5 -15 11 0 18
-33 46 -38 31 -6 -20 -36 -14 -56 13 -10 14 -25 25 -32 25 -8 0 -14 7 -14 16
0 8 -7 22 -15 30 -10 10 -15 35 -15 75 0 32 -4 59 -10 59 -5 0 -12 11 -16 25
-3 14 -12 25 -20 25 -8 0 -14 9 -14 20 0 11 -7 20 -15 20 -8 0 -15 7 -15 15 0
8 -7 15 -15 15 -8 0 -15 9 -15 20 0 11 -7 20 -15 20 -8 0 -15 5 -15 11 0 14
-25 39 -39 39 -6 0 -11 5 -11 10 0 6 -7 10 -15 10 -8 0 -15 7 -15 15 0 8 -7
15 -15 15 -8 0 -15 9 -15 20 0 11 -7 20 -15 20 -8 0 -15 7 -15 15 0 8 -7 15
-15 15 -8 0 -15 5 -15 10 0 6 -7 10 -15 10 -8 0 -15 5 -15 10 0 6 -7 10 -15
10 -8 0 -15 7 -15 15 0 8 -7 15 -15 15 -8 0 -15 9 -15 20 0 11 -4 20 -10 20
-5 0 -10 11 -10 24 0 14 -4 28 -10 31 -5 3 -10 15 -10 26 0 10 -4 19 -10 19
-5 0 -10 7 -10 15 0 8 -4 15 -10 15 -5 0 -10 7 -10 15 0 24 -32 55 -57 55 -19
0 -23 5 -23 30 0 25 -4 30 -25 30 -22 0 -25 4 -25 35 0 19 -4 35 -10 35 -5 0
-10 11 -10 25 0 18 -5 25 -20 25 -11 0 -20 7 -20 15 0 11 -12 15 -50 15 -43 0
-50 3 -50 20 0 10 -6 23 -13 27 -8 4 -17 26 -20 48 -4 22 -11 41 -17 43 -5 2
-10 12 -10 23 0 10 -7 19 -15 19 -8 0 -15 7 -15 15 0 8 -7 15 -15 15 -8 0 -15
9 -15 20 0 11 -7 20 -15 20 -8 0 -15 7 -15 15 0 8 -9 15 -20 15 -13 0 -20 7
-20 19 0 22 -19 31 -66 31 -32 0 -34 2 -34 35 0 19 -4 35 -10 35 -5 0 -10 11
-10 25 0 16 -6 25 -16 25 -22 0 -44 25 -44 49 0 12 -4 21 -10 21 -5 0 -10 9
-10 20 0 11 -4 20 -10 20 -5 0 -10 7 -10 15 0 8 -7 15 -15 15 -8 0 -15 9 -15
20 0 13 -7 20 -20 20 -13 0 -20 -7 -20 -20 0 -35 -37 -25 -51 15 -7 19 -17 35
-21 35 -4 0 -8 9 -8 20 0 11 -4 20 -10 20 -5 0 -10 11 -10 25 0 14 -4 25 -10
25 -5 0 -10 16 -10 35 0 19 -4 35 -10 35 -5 0 -10 9 -10 21 0 22 -22 49 -39
49 -6 0 -11 5 -11 10 0 6 -11 10 -25 10 -20 0 -25 5 -25 25 0 18 -5 25 -20 25
-11 0 -20 5 -20 10 0 6 -13 10 -30 10 -20 0 -30 5 -30 15 0 8 -7 15 -15 15 -8
0 -15 9 -15 20 0 11 -6 20 -14 20 -17 0 -26 51 -26 151 0 42 -3 137 -6 211
l-7 135 -121 63 c-337 174 -406 214 -406 232 0 11 -7 18 -20 18 -15 0 -20 7
-20 25 0 21 -5 25 -30 25 -23 0 -30 4 -30 20 0 13 -7 20 -20 20 -11 0 -20 7
-20 15 0 8 -7 15 -15 15 -8 0 -15 5 -15 10 0 6 -7 10 -15 10 -8 0 -15 5 -15
10 0 6 -7 10 -15 10 -8 0 -15 7 -15 15 0 8 -7 15 -15 15 -8 0 -15 9 -15 20 0
11 -7 20 -15 20 -9 0 -15 9 -15 25 0 16 -6 25 -15 25 -9 0 -15 9 -15 25 0 16
-6 25 -15 25 -8 0 -15 9 -15 20 0 17 -7 20 -40 20 -29 0 -40 4 -40 15 0 8 -4
15 -8 15 -11 0 -32 46 -32 70 0 11 -4 20 -10 20 -5 0 -11 12 -11 28 -1 16 -3
20 -6 10 -3 -11 -14 -18 -29 -18 -19 0 -24 5 -24 24 0 27 -24 56 -46 56 -8 0
-14 5 -14 10 0 6 -7 10 -15 10 -8 0 -15 9 -15 20 0 11 -4 20 -10 20 -6 0 -10
27 -10 60 0 47 -3 60 -15 60 -8 0 -15 9 -15 20 0 11 -5 20 -10 20 -6 0 -20 9
-32 20 -11 10 -34 22 -49 25 -16 4 -29 13 -29 21 0 8 -7 14 -15 14 -8 0 -15 7
-15 15 0 8 -7 15 -15 15 -8 0 -15 9 -15 20 0 11 -4 20 -10 20 -5 0 -10 16 -10
35 0 22 -8 43 -20 55 -11 11 -20 24 -20 30 0 6 -4 10 -10 10 -5 0 -10 7 -10
15 0 8 -7 15 -15 15 -9 0 -15 9 -15 25 0 16 -6 25 -15 25 -8 0 -15 7 -15 15 0
8 -7 15 -15 15 -8 0 -15 7 -15 15 0 8 3 15 8 15 12 0 216 -115 280 -158 112
-75 180 -112 283 -153 130 -51 151 -62 327 -167 264 -156 415 -200 597 -175
l48 6 -6 601 c-4 331 -12 725 -17 876 -6 151 -11 313 -11 360 1 125 -37 1194
-54 1570 -9 179 -20 489 -25 690 -6 201 -14 437 -20 525 -5 88 -12 268 -15
400 -3 132 -12 375 -20 540 -30 625 -38 943 -31 1270 7 382 -3 578 -35 680
-90 291 -349 562 -692 725 l-119 57 31 35 c53 61 63 62 334 49 416 -19 1595
-10 2357 19 467 18 1043 39 1228 46 l182 6 0 -58 c0 -84 -8 -102 -49 -124 -76
-39 -289 -291 -342 -405 -65 -138 -69 -175 -74 -665 -7 -642 13 -4061 25
-4280 5 -102 14 -320 20 -485 17 -533 60 -1517 70 -1629 5 -60 13 -181 16
-268 l7 -158 26 7 c155 36 400 132 531 208 41 23 109 53 150 65 98 29 124 43
323 172 93 60 216 132 273 159 58 28 148 83 202 123 144 107 188 136 289 191
50 27 181 118 290 200 109 83 238 175 287 205 49 30 114 78 143 106 l53 50 -1
885 c-1 1044 -15 2431 -28 2819 -10 288 -78 1557 -86 1600 -2 14 -9 122 -15
240 -6 118 -17 274 -25 345 -8 72 -19 231 -25 355 -11 242 -22 352 -46 470
-19 92 -79 277 -104 317 -11 19 -69 60 -167 119 -143 85 -151 92 -186 151 -21
34 -37 74 -37 89 0 25 2 26 38 20 238 -41 449 -55 852 -56 146 0 351 -5 455
-10 118 -6 398 -6 735 0 671 12 959 24 1216 50 352 36 388 39 464 40 41 0 81
-4 88 -8 9 -6 -14 -37 -80 -108 -52 -54 -111 -127 -131 -161 -60 -98 -282
-570 -357 -758 -33 -83 -54 -203 -74 -415 -39 -407 -41 -559 -40 -2365 2
-1594 6 -2006 30 -2641 l7 -170 58 8 c32 4 121 23 196 42 372 93 1049 206
1239 206 174 0 343 -43 472 -120 38 -22 105 -52 148 -65 63 -19 117 -49 264
-146 178 -116 294 -180 353 -193 l27 -6 0 62 c0 35 -11 155 -25 268 -16 134
-25 257 -25 355 0 211 -36 517 -189 1600 -103 726 -132 960 -140 1110 -7 127
-27 305 -60 535 -54 375 -198 1353 -231 1570 -11 74 -25 221 -30 326 -11 217
-46 508 -126 1034 -128 850 -184 1261 -190 1403 l-7 144 144 -4 c79 -2 299 -8
489 -13z m4349 -1716 c28 -15 58 -36 66 -48 20 -30 46 -209 120 -812 124
-1018 167 -1444 200 -2014 36 -600 55 -1018 65 -1365 5 -203 14 -458 20 -565
11 -231 12 -1617 1 -1911 -6 -151 -12 -214 -24 -242 -25 -57 -79 -134 -150
-214 -36 -39 -102 -126 -147 -193 -94 -138 -136 -176 -186 -171 -7 0 -57 54
-112 119 -55 64 -130 143 -166 175 -37 33 -88 91 -115 131 -27 39 -96 117
-153 172 -70 66 -123 128 -161 186 -105 163 -169 208 -307 216 -64 3 -94 1
-124 -12 -26 -11 -69 -16 -136 -16 l-97 0 -6 753 c-8 1094 -21 4074 -20 4767
1 563 8 749 30 771 22 22 345 120 542 164 63 14 171 30 240 35 85 6 173 21
271 45 133 33 223 51 276 54 11 0 44 -11 73 -25z m-15682 -6920 c-8 -51 -26
-66 -141 -127 -56 -30 -153 -87 -216 -127 -122 -78 -240 -140 -305 -160 -22
-7 -124 -66 -227 -131 -113 -72 -197 -119 -213 -119 -23 0 -25 3 -25 45 0 41
-2 45 -25 45 -17 0 -25 6 -25 18 -1 21 -23 52 -39 52 -6 0 -11 11 -11 25 0 16
-6 25 -15 25 -8 0 -15 7 -15 15 0 8 -7 15 -15 15 -10 0 -15 10 -15 30 0 20 -5
30 -15 30 -10 0 -15 11 -15 35 0 28 -4 35 -20 35 -13 0 -20 7 -20 20 0 13 -10
22 -32 28 l-33 9 55 17 c30 9 132 30 225 47 94 17 282 55 419 85 284 63 608
121 680 123 l49 1 -6 -36z m12283 -10874 l0 -60 -30 0 -30 0 0 60 0 60 30 0
30 0 0 -60z"/>
<path d="M21820 23380 l0 -60 160 0 160 0 0 60 0 60 -160 0 -160 0 0 -60z"/>
<path d="M15580 11100 c0 -27 3 -30 30 -30 27 0 30 3 30 30 0 27 -3 30 -30 30
-27 0 -30 -3 -30 -30z"/>
<path d="M15700 11100 c0 -27 3 -30 30 -30 27 0 30 3 30 30 0 27 -3 30 -30 30
-27 0 -30 -3 -30 -30z"/>
<path d="M15870 11100 c0 -27 3 -30 30 -30 27 0 30 3 30 30 0 27 -3 30 -30 30
-27 0 -30 -3 -30 -30z"/>
<path d="M16210 10936 c0 -74 3 -141 6 -150 7 -18 64 -23 64 -6 0 6 35 10 85
10 l85 0 0 70 c0 68 -1 70 -25 70 -24 0 -25 3 -25 60 l0 60 -60 0 c-33 0 -60
4 -60 10 0 6 -16 10 -35 10 l-35 0 0 -134z"/>
<path d="M15700 10055 l0 -175 30 0 c23 0 30 -4 30 -20 0 -10 5 -53 11 -95
l11 -75 38 0 c21 0 41 -6 43 -12 3 -7 6 20 6 60 l1 72 60 0 60 0 0 70 0 70
-60 0 c-33 0 -60 4 -60 10 0 6 -25 10 -55 10 l-55 0 0 130 0 130 -30 0 -30 0
0 -175z"/>
<path d="M16283 8700 c0 -41 2 -58 4 -37 2 20 2 54 0 75 -2 20 -4 3 -4 -38z"/>
</g>
</svg>
